<svg xmlns="http://www.w3.org/2000/svg" width="151" height="151" viewBox="0 0 151 151"><defs><style>.a{fill:#af8e9a;}</style></defs><path class="a" d="M79.665,110.692c41.274,0,75.461-34.187,75.461-75.461S120.861-40.308,79.587-40.308,4.126-6.043,4.126,35.231,38.391,110.692,79.665,110.692Zm0-79.666c-10.124-.078-18.223-8.644-18.223-20.014,0-10.591,8.1-19.469,18.223-19.469S97.81.421,97.81,11.012C97.81,22.382,89.789,31.1,79.665,31.026ZM47.425,71.911c-2.959,0-4.361-1.947-4.361-4.673,0-7.71,11.681-27.879,36.6-27.879s36.6,20.17,36.6,27.879c0,2.726-1.48,4.673-4.361,4.673Z" transform="translate(-4.126 40.308)"/></svg>