<svg xmlns="http://www.w3.org/2000/svg" width="20" height="18.824" viewBox="0 0 20 18.824"><defs><style>.a{fill:#b699a3;}</style></defs><path class="a" d="M-14.411,6H-.7c2.1,0,3.141-1.063,3.141-3.17V-9.651c0-2.106-1.044-3.17-3.141-3.17H-14.411q-3.146,0-3.151,3.17V2.834Q-17.563,6.008-14.411,6Zm-.151-1.646a1.259,1.259,0,0,1-1.385-1.431V-6.716a1.263,1.263,0,0,1,1.385-1.431H-.573A1.27,1.27,0,0,1,.822-6.716V2.926A1.266,1.266,0,0,1-.573,4.357Zm5.038-8.834h.592c.351,0,.472-.1.472-.46v-.6c0-.358-.12-.47-.472-.47h-.592c-.351,0-.472.112-.472.47v.6C-10-4.579-9.876-4.477-9.524-4.477Zm3.342,0H-5.6c.351,0,.472-.1.472-.46v-.6c0-.358-.12-.47-.472-.47h-.582c-.361,0-.472.112-.472.47v.6C-6.654-4.579-6.544-4.477-6.183-4.477Zm3.332,0h.592c.351,0,.462-.1.462-.46v-.6c0-.358-.11-.47-.462-.47h-.592c-.351,0-.472.112-.472.47v.6C-3.323-4.579-3.2-4.477-2.851-4.477ZM-12.856-1.134h.592c.351,0,.462-.1.462-.46v-.6c0-.358-.11-.46-.462-.46h-.592c-.351,0-.472.1-.472.46v.6C-13.328-1.236-13.207-1.134-12.856-1.134Zm3.332,0h.592c.351,0,.472-.1.472-.46v-.6c0-.358-.12-.46-.472-.46h-.592c-.351,0-.472.1-.472.46v.6C-10-1.236-9.876-1.134-9.524-1.134Zm3.342,0H-5.6c.351,0,.472-.1.472-.46v-.6c0-.358-.12-.46-.472-.46h-.582c-.361,0-.472.1-.472.46v.6C-6.654-1.236-6.544-1.134-6.183-1.134Zm3.332,0h.592c.351,0,.462-.1.462-.46v-.6c0-.358-.11-.46-.462-.46h-.592c-.351,0-.472.1-.472.46v.6C-3.323-1.236-3.2-1.134-2.851-1.134ZM-12.856,2.22h.592c.351,0,.462-.112.462-.47v-.6c0-.358-.11-.46-.462-.46h-.592c-.351,0-.472.1-.472.46v.6C-13.328,2.108-13.207,2.22-12.856,2.22Zm3.332,0h.592c.351,0,.472-.112.472-.47v-.6c0-.358-.12-.46-.472-.46h-.592c-.351,0-.472.1-.472.46v.6C-10,2.108-9.876,2.22-9.524,2.22Zm3.342,0H-5.6c.351,0,.472-.112.472-.47v-.6c0-.358-.12-.46-.472-.46h-.582c-.361,0-.472.1-.472.46v.6C-6.654,2.108-6.544,2.22-6.183,2.22Z" transform="translate(17.563 12.82)"/></svg>