<svg xmlns="http://www.w3.org/2000/svg" width="17" height="16" viewBox="0 0 17 16"><path d="M-14.884,3.18H-3.232A2.372,2.372,0,0,0-.563.485V-10.126a2.372,2.372,0,0,0-2.67-2.694H-14.884a2.374,2.374,0,0,0-2.678,2.694V.485A2.374,2.374,0,0,0-14.884,3.18Zm-.128-1.4A1.07,1.07,0,0,1-16.189.564v-8.2a1.074,1.074,0,0,1,1.177-1.217H-3.121A1.08,1.08,0,0,1-1.936-7.632v8.2A1.076,1.076,0,0,1-3.121,1.78Zm4.282-7.509h.5c.3,0,.4-.087.4-.391v-.513c0-.3-.1-.4-.4-.4h-.5c-.3,0-.4.1-.4.4v.513C-11.131-5.815-11.029-5.729-10.73-5.729Zm2.84,0h.495c.3,0,.4-.087.4-.391v-.513c0-.3-.1-.4-.4-.4H-7.89c-.307,0-.4.1-.4.4v.513C-8.291-5.815-8.2-5.729-7.89-5.729Zm2.832,0h.5c.3,0,.392-.087.392-.391v-.513c0-.3-.094-.4-.392-.4h-.5c-.3,0-.4.1-.4.4v.513C-5.459-5.815-5.356-5.729-5.058-5.729Zm-8.5,2.842h.5c.3,0,.392-.087.392-.391V-3.79c0-.3-.094-.391-.392-.391h-.5c-.3,0-.4.087-.4.391v.513C-13.963-2.973-13.861-2.887-13.562-2.887Zm2.832,0h.5c.3,0,.4-.087.4-.391V-3.79c0-.3-.1-.391-.4-.391h-.5c-.3,0-.4.087-.4.391v.513C-11.131-2.973-11.029-2.887-10.73-2.887Zm2.84,0h.495c.3,0,.4-.087.4-.391V-3.79c0-.3-.1-.391-.4-.391H-7.89c-.307,0-.4.087-.4.391v.513C-8.291-2.973-8.2-2.887-7.89-2.887Zm2.832,0h.5c.3,0,.392-.087.392-.391V-3.79c0-.3-.094-.391-.392-.391h-.5c-.3,0-.4.087-.4.391v.513C-5.459-2.973-5.356-2.887-5.058-2.887Zm-8.5,2.851h.5c.3,0,.392-.1.392-.4V-.949c0-.3-.094-.391-.392-.391h-.5c-.3,0-.4.087-.4.391v.513C-13.963-.132-13.861-.036-13.562-.036Zm2.832,0h.5c.3,0,.4-.1.4-.4V-.949c0-.3-.1-.391-.4-.391h-.5c-.3,0-.4.087-.4.391v.513C-11.131-.132-11.029-.036-10.73-.036Zm2.84,0h.495c.3,0,.4-.1.4-.4V-.949c0-.3-.1-.391-.4-.391H-7.89c-.307,0-.4.087-.4.391v.513C-8.291-.132-8.2-.036-7.89-.036Z" transform="translate(17.563 12.82)"/></svg>