<svg xmlns="http://www.w3.org/2000/svg" width="28" height="28" viewBox="0 0 28 28"><defs><style>.a{fill:#efeff4;}</style></defs><path class="a" d="M.055,4.184a14.1,14.1,0,0,0,14-14,14.116,14.116,0,0,0-14.014-14,14.1,14.1,0,0,0-13.986,14A14.1,14.1,0,0,0,.055,4.184Zm0-2.333A11.61,11.61,0,0,1-11.6-9.816,11.607,11.607,0,0,1,.041-21.483,11.651,11.651,0,0,1,11.721-9.816,11.613,11.613,0,0,1,.055,1.85Zm-1.729-4.8A1.3,1.3,0,0,0-.563-3.6l6.78-10.665a1.736,1.736,0,0,0,.329-.892,1.056,1.056,0,0,0-1.125-1.016,1.141,1.141,0,0,0-.961.618L-1.73-5.63-4.914-9.748a1.225,1.225,0,0,0-1.016-.563A1.093,1.093,0,0,0-7.014-9.2a1.379,1.379,0,0,0,.329.851L-2.855-3.6A1.454,1.454,0,0,0-1.675-2.954Z" transform="translate(13.945 23.816)"/></svg>