<svg xmlns="http://www.w3.org/2000/svg" width="28" height="28" viewBox="0 0 28 28"><defs><style>.a{fill:#409826;}</style></defs><path class="a" d="M.055,4.184a14.1,14.1,0,0,0,14-14,14.116,14.116,0,0,0-14.014-14,14.1,14.1,0,0,0-13.986,14A14.1,14.1,0,0,0,.055,4.184Zm-1.88-6.959a1.521,1.521,0,0,1-1.222-.673L-7.014-8.334a1.492,1.492,0,0,1-.329-.892,1.125,1.125,0,0,1,1.125-1.139,1.235,1.235,0,0,1,1.043.576l3.28,4.241L4.488-15.773a1.169,1.169,0,0,1,.988-.631,1.1,1.1,0,0,1,1.18,1.057,1.94,1.94,0,0,1-.343.906L-.673-3.448A1.339,1.339,0,0,1-1.826-2.775Z" transform="translate(13.945 23.816)"/></svg>