<svg xmlns="http://www.w3.org/2000/svg" width="17" height="17" viewBox="0 0 17 17"><defs><style>.a{fill:#182849;}</style></defs><path class="a" d="M9.986,2.54a8.558,8.558,0,0,0,8.5-8.5,8.57,8.57,0,0,0-8.508-8.5,8.561,8.561,0,0,0-8.492,8.5A8.563,8.563,0,0,0,9.986,2.54ZM8.844-1.685A.923.923,0,0,1,8.1-2.093L5.694-5.06a.906.906,0,0,1-.2-.542.683.683,0,0,1,.683-.692.75.75,0,0,1,.633.35L8.8-3.368l3.875-6.208a.71.71,0,0,1,.6-.383.67.67,0,0,1,.717.642,1.178,1.178,0,0,1-.208.55L9.544-2.093A.813.813,0,0,1,8.844-1.685Z" transform="translate(-1.486 14.46)"/></svg>