<svg xmlns="http://www.w3.org/2000/svg" width="16" height="16" viewBox="0 0 16 16"><defs><style>.a{fill:#182849;}</style></defs><path class="a" d="M9.655-.133a8.053,8.053,0,0,0,8-8,8.058,8.058,0,0,0-8-8,8.051,8.051,0,0,0-8,8A8.06,8.06,0,0,0,9.655-.133Zm0-1.428A6.545,6.545,0,0,1,3.086-8.137a6.543,6.543,0,0,1,6.56-6.577,6.57,6.57,0,0,1,6.585,6.577A6.547,6.547,0,0,1,9.655-1.56ZM5.463-9.614h8.392a.557.557,0,0,0,.611-.569.564.564,0,0,0-.611-.578H5.463a.57.57,0,0,0-.619.578A.564.564,0,0,0,5.463-9.614Zm1.13,2.575h6.131a.564.564,0,0,0,.619-.569.564.564,0,0,0-.619-.569H6.593a.564.564,0,0,0-.619.569A.564.564,0,0,0,6.593-7.039ZM7.765-4.457h3.788a.566.566,0,0,0,.611-.569.568.568,0,0,0-.611-.578H7.765a.568.568,0,0,0-.611.578A.566.566,0,0,0,7.765-4.457Z" transform="translate(-1.65 16.133)"/></svg>