<svg xmlns="http://www.w3.org/2000/svg" xmlns:xlink="http://www.w3.org/1999/xlink" width="70" height="30" viewBox="0 0 70 30"><defs><style>.a{fill:none;}.b{clip-path:url(#a);}.c{clip-path:url(#b);}.d{fill:#003087;}.e{fill:#009cde;}.f{fill:#012169;}</style><clipPath id="a"><rect class="a" width="70" height="30" transform="translate(285 1051)"/></clipPath><clipPath id="b"><path d="M-175.537-116.136H-31.468v-46.8H-175.537Z" transform="translate(175.537 162.936)"/></clipPath></defs><g class="b" transform="translate(-285 -1051)"><g transform="translate(247.979 1043.079)"><g class="c" transform="translate(0 0)"><path class="d" d="M24.682-89.566c-.74-.843-2.077-1.2-3.787-1.2H15.931a.711.711,0,0,0-.7.6l-2.066,13.11a.426.426,0,0,0,.1.343.426.426,0,0,0,.324.149h3.065l.77-4.882-.024.153a.709.709,0,0,1,.7-.6h1.456c2.861,0,5.1-1.162,5.756-4.524q.029-.149.051-.291a3.175,3.175,0,0,0-.673-2.854" transform="translate(26.991 106.125)"/><path class="e" d="M222.645-67.665c-.187,1.23-1.127,1.23-2.035,1.23h-.517l.363-2.3a.285.285,0,0,1,.282-.241h.237c.619,0,1.2,0,1.5.352a1.146,1.146,0,0,1,.166.955m-.4-3.21h-3.427a.477.477,0,0,0-.471.4l-1.385,8.787a.286.286,0,0,0,.065.23.286.286,0,0,0,.217.1h1.759a.333.333,0,0,0,.329-.281l.393-2.492a.476.476,0,0,1,.47-.4h1.084a3.519,3.519,0,0,0,3.9-3.257A2.639,2.639,0,0,0,224.747-70a3.179,3.179,0,0,0-2.5-.876" transform="translate(-133.452 90.463)"/><path class="d" d="M107.758-67.665c-.187,1.23-1.127,1.23-2.036,1.23h-.517l.363-2.3a.285.285,0,0,1,.282-.241h.237c.619,0,1.2,0,1.5.352a1.144,1.144,0,0,1,.167.955m-.4-3.21h-3.427a.477.477,0,0,0-.471.4l-1.385,8.787a.285.285,0,0,0,.065.23.285.285,0,0,0,.217.1H104a.476.476,0,0,0,.47-.4l.374-2.371a.476.476,0,0,1,.47-.4H106.4a3.52,3.52,0,0,0,3.9-3.258A2.639,2.639,0,0,0,109.861-70a3.179,3.179,0,0,0-2.5-.876m7.956,6.365a1.83,1.83,0,0,1-1.852,1.567,1.385,1.385,0,0,1-1.1-.443,1.393,1.393,0,0,1-.257-1.152,1.836,1.836,0,0,1,1.839-1.579,1.383,1.383,0,0,1,1.094.447,1.413,1.413,0,0,1,.278,1.16m2.287-3.195h-1.641a.286.286,0,0,0-.283.242l-.072.459-.115-.166a2.336,2.336,0,0,0-1.938-.688,3.774,3.774,0,0,0-3.663,3.3,3.1,3.1,0,0,0,.611,2.522,2.568,2.568,0,0,0,2.067.834,3.142,3.142,0,0,0,2.272-.939l-.073.456a.285.285,0,0,0,.065.23.285.285,0,0,0,.217.1h1.478a.476.476,0,0,0,.471-.4l.887-5.617a.286.286,0,0,0-.065-.23.286.286,0,0,0-.217-.1" transform="translate(-43.01 90.463)"/><path class="e" d="M258.951-53.351a1.83,1.83,0,0,1-1.852,1.567,1.385,1.385,0,0,1-1.1-.443,1.393,1.393,0,0,1-.257-1.152,1.836,1.836,0,0,1,1.839-1.579,1.383,1.383,0,0,1,1.094.447,1.413,1.413,0,0,1,.278,1.16m2.287-3.195H259.6a.286.286,0,0,0-.283.242l-.072.459-.115-.166a2.336,2.336,0,0,0-1.938-.688,3.774,3.774,0,0,0-3.663,3.3,3.1,3.1,0,0,0,.612,2.522,2.568,2.568,0,0,0,2.067.834,3.143,3.143,0,0,0,2.272-.939l-.073.456a.284.284,0,0,0,.064.23.285.285,0,0,0,.217.1h1.477a.477.477,0,0,0,.471-.4l.887-5.617a.286.286,0,0,0-.065-.23.286.286,0,0,0-.217-.1" transform="translate(-162.198 79.303)"/><path class="d" d="M187.855-55.974h-1.65a.474.474,0,0,0-.393.209l-2.276,3.351-.965-3.22a.477.477,0,0,0-.456-.34h-1.621a.286.286,0,0,0-.232.12.286.286,0,0,0-.038.259l1.816,5.332-1.708,2.41a.286.286,0,0,0-.02.3.286.286,0,0,0,.254.154h1.648a.477.477,0,0,0,.391-.2l5.485-7.917a.285.285,0,0,0,.019-.3.285.285,0,0,0-.253-.153" transform="translate(-104.518 78.732)"/><path class="e" d="M293.826-70.632l-1.407,8.948a.286.286,0,0,0,.065.23.286.286,0,0,0,.217.1h1.414a.477.477,0,0,0,.471-.4l1.387-8.788a.285.285,0,0,0-.065-.23.285.285,0,0,0-.217-.1h-1.583a.285.285,0,0,0-.282.241" transform="translate(-192.851 90.461)"/><path class="d" d="M24.682-89.566c-.74-.843-2.077-1.2-3.787-1.2H15.931a.711.711,0,0,0-.7.6l-2.066,13.11a.426.426,0,0,0,.1.343.426.426,0,0,0,.324.149h3.065l.77-4.882-.024.153a.709.709,0,0,1,.7-.6h1.456c2.861,0,5.1-1.162,5.756-4.524q.029-.149.051-.291a3.175,3.175,0,0,0-.673-2.854" transform="translate(26.991 106.125)"/><path class="d" d="M18.242-86.694a.622.622,0,0,1,.614-.524h3.892a8.183,8.183,0,0,1,1.284.093,5.394,5.394,0,0,1,.636.142,3.516,3.516,0,0,1,.685.273,3.173,3.173,0,0,0-.673-2.854c-.74-.843-2.077-1.2-3.787-1.2H15.928a.711.711,0,0,0-.7.6L13.16-77.06a.426.426,0,0,0,.1.343.426.426,0,0,0,.324.149h3.065l.77-4.883Z" transform="translate(26.993 106.123)"/><path class="e" d="M37.469-71.7q-.023.146-.051.291c-.654,3.361-2.895,4.524-5.756,4.524H30.206a.708.708,0,0,0-.7.6l-.746,4.729-.212,1.341a.373.373,0,0,0,.085.3.373.373,0,0,0,.284.131H31.5a.622.622,0,0,0,.614-.524l.025-.132.487-3.086.031-.171a.622.622,0,0,1,.614-.524h.387c2.5,0,4.462-1.016,5.035-3.957a3.374,3.374,0,0,0-.517-2.975,2.467,2.467,0,0,0-.707-.546" transform="translate(14.877 91.108)"/><path class="f" d="M40.345-73.848q-.15-.044-.309-.08c-.106-.023-.216-.044-.328-.062a8.025,8.025,0,0,0-1.284-.094H34.533a.62.62,0,0,0-.614.525l-.827,5.245-.024.152a.708.708,0,0,1,.7-.6h1.457c2.861,0,5.1-1.162,5.756-4.524.019-.1.036-.2.051-.291a3.535,3.535,0,0,0-.538-.227l-.147-.046" transform="translate(11.316 92.989)"/></g></g></g></svg>