<svg xmlns="http://www.w3.org/2000/svg" width="69" height="69" viewBox="0 0 69 69"><defs><style>.a{fill:#182849;}.b{fill:#fff;}</style></defs><g transform="translate(-936 -509)"><circle class="a" cx="34.5" cy="34.5" r="34.5" transform="translate(936 509)"/><path class="b" d="M18.4,15.987c-.821,6.537-5.015,7.7-5.015,12.244a5.2,5.2,0,0,0,10.407,0c0-4.545-4.194-5.708-5.015-12.244a.2.2,0,0,0-.378,0ZM8.761,1.69c-.821,6.537-5.015,7.7-5.015,12.244a5.2,5.2,0,0,0,10.405,0c0-4.545-4.194-5.708-5.015-12.244a.194.194,0,0,0-.376,0Zm19.281,0c-.821,6.537-5.015,7.7-5.015,12.244a5.2,5.2,0,0,0,10.405,0c0-4.545-4.194-5.708-5.015-12.244a.194.194,0,0,0-.376,0Z" transform="translate(952.312 525.909)"/></g></svg>