<svg xmlns="http://www.w3.org/2000/svg" width="30" height="20.713" viewBox="0 0 30 20.713"><path d="M30.463-19.961h2.794a2.684,2.684,0,0,0,2.968-2.892V-37.782a2.684,2.684,0,0,0-2.968-2.892H30.463a2.681,2.681,0,0,0-2.957,2.892v14.929A2.681,2.681,0,0,0,30.463-19.961Zm-10.64,0h2.794a2.684,2.684,0,0,0,2.968-2.892V-34.606A2.684,2.684,0,0,0,22.617-37.5H19.823a2.681,2.681,0,0,0-2.957,2.892v11.753A2.681,2.681,0,0,0,19.823-19.961Zm-10.64,0h2.8a2.681,2.681,0,0,0,2.957-2.892V-31.4a2.681,2.681,0,0,0-2.957-2.892h-2.8a2.684,2.684,0,0,0-2.957,2.9v8.534A2.681,2.681,0,0,0,9.183-19.961Z" transform="translate(-6.226 40.674)"/></svg>