<svg xmlns="http://www.w3.org/2000/svg" width="28" height="28" viewBox="0 0 28 28"><defs><style>.a{fill:#af8e9a;}</style></defs><path class="a" d="M16.447,4.211a14.1,14.1,0,0,0,14-14,14.107,14.107,0,0,0-14.014-14,14.092,14.092,0,0,0-13.986,14A14.113,14.113,0,0,0,16.447,4.211ZM10.216-9.226a6.1,6.1,0,0,1,5.957-6.108,2.923,2.923,0,0,1,.371.027l-.988-.988a.954.954,0,0,1-.233-.645.87.87,0,0,1,.878-.892.871.871,0,0,1,.645.275l2.676,2.731a.966.966,0,0,1,0,1.29l-2.7,2.69a.887.887,0,0,1-.618.275.876.876,0,0,1-.878-.878.89.89,0,0,1,.261-.645l1.359-1.331a2.905,2.905,0,0,0-.508-.027,4.262,4.262,0,0,0-4.3,4.269,4.291,4.291,0,0,0,4.3,4.324,4.291,4.291,0,0,0,4.3-4.324.958.958,0,0,1,.961-.933.958.958,0,0,1,.961.933A6.227,6.227,0,0,1,16.434-2.94,6.236,6.236,0,0,1,10.216-9.226Z" transform="translate(-2.447 23.789)"/></svg>