<svg xmlns="http://www.w3.org/2000/svg" width="16" height="16" viewBox="0 0 16 16"><defs><style>.a{fill:#182849;}</style></defs><path class="a" d="M9.655-.133a8.053,8.053,0,0,0,8-8,8.058,8.058,0,0,0-8-8,8.051,8.051,0,0,0-8,8A8.06,8.06,0,0,0,9.655-.133Zm0-1.428A6.545,6.545,0,0,1,3.086-8.137a6.543,6.543,0,0,1,6.56-6.577,6.57,6.57,0,0,1,6.585,6.577A6.547,6.547,0,0,1,9.655-1.56Zm-2.393-3a.529.529,0,0,0,.545-.545V-9.086l-.058-1.188.718.858.553.652a.481.481,0,0,0,.388.157.516.516,0,0,0,.528-.528.523.523,0,0,0-.149-.371l-2.055-2.17a.67.67,0,0,0-.47-.215.621.621,0,0,0-.462.215L4.737-9.507a.491.491,0,0,0-.149.371.51.51,0,0,0,.52.528A.492.492,0,0,0,5.5-8.764l.578-.652.693-.85-.058,1.18v3.977A.531.531,0,0,0,7.262-4.564Zm4.769,0a.625.625,0,0,0,.47-.215L14.556-6.94a.523.523,0,0,0,.149-.38.516.516,0,0,0-.528-.528.473.473,0,0,0-.388.165l-.553.644-.718.858.066-1.18v-3.977a.533.533,0,0,0-.553-.553.533.533,0,0,0-.553.553v3.977l.058,1.172-.693-.85-.569-.644a.483.483,0,0,0-.388-.165.516.516,0,0,0-.528.528.523.523,0,0,0,.149.38l2.063,2.162A.605.605,0,0,0,12.031-4.564Z" transform="translate(-1.65 16.133)"/></svg>