<svg xmlns="http://www.w3.org/2000/svg" width="66.287" height="27.021" viewBox="0 0 66.287 27.021"><defs><style>.a{fill:#359ad5;}</style></defs><path class="a" d="M65.712,30.266c-1.335,0-1.2,1.635-1.251,3.381h2.225C66.686,31.679,66.686,30.266,65.712,30.266ZM64.461,36.5c0,1.579.779,1.884,2.086,1.884a26.612,26.612,0,0,0,4.311-.582v3.825a14.4,14.4,0,0,1-4.311.748c-3.31,0-7.343-.527-7.343-7.566,0-6.208,3.171-7.677,6.508-7.677,3.421,0,5.9,1.746,5.9,7.621V36.5H64.461ZM51.414,31.014a3.406,3.406,0,0,0-1.251.444v7.094a3.656,3.656,0,0,0,.89.139c.918,0,1.474-.776,1.474-4.018,0-3.3-.251-3.659-1.113-3.659Zm.612,11.363a8.7,8.7,0,0,1-1.863-.3v5.293H44.878V27.411h4.283l.779.915a4.789,4.789,0,0,1,3.143-1.192c2.169,0,4.728.61,4.728,7.538,0,7.594-3.838,7.7-5.785,7.7ZM40.01,25.61a2.633,2.633,0,1,1,2.615-2.633A2.613,2.613,0,0,1,40.01,25.61ZM37.368,42.1V27.411h5.285V42.1Zm-3.2-10.559a3.465,3.465,0,0,0-1.752.5V42.1H27.131V27.411h4.2l.779,1.413a2.438,2.438,0,0,1,2.364-1.691,3.641,3.641,0,0,1,1.641.3v4.379A7.846,7.846,0,0,0,34.168,31.541ZM24.126,38.386c.334,0,1.5-.166,1.891-.222v3.741a20.067,20.067,0,0,1-3.755.471c-1.5,0-4.311-.166-4.311-4.24V30.765H16V27.411h1.947l.667-3.326,4.617-1.108v4.434h2.781l-.7,3.354H23.236v6.43c0,1,.306,1.191.89,1.191ZM10.468,31.652c0,.582.39.776,1.307,1.192l.556.25c1.307.582,3.115,1.524,3.115,4.3,0,4.434-3.31,4.988-5.674,4.988a15.307,15.307,0,0,1-4.228-.693v-3.8a18.6,18.6,0,0,0,3.31.637c.807,0,1.419-.111,1.419-.831,0-.554-.389-.8-1.252-1.191l-.668-.3a4.432,4.432,0,0,1-3.032-4.268c0-3.936,3.087-4.794,5.674-4.794a10.6,10.6,0,0,1,3.894.693v3.686a13.758,13.758,0,0,0-3.31-.582c-.64,0-1.112.166-1.112.72Z" transform="translate(-5.322 -20.344)"/></svg>