<svg xmlns="http://www.w3.org/2000/svg" width="12" height="12" viewBox="0 0 12 12"><defs><style>.a{fill:#676069;}</style></defs><path class="a" d="M10.714,2.25H1.286A1.286,1.286,0,0,0,0,3.536v9.429A1.286,1.286,0,0,0,1.286,14.25h9.429A1.286,1.286,0,0,0,12,12.964V3.536A1.286,1.286,0,0,0,10.714,2.25ZM9.4,6.5c.005.075.005.153.005.228a4.964,4.964,0,0,1-5,5,4.975,4.975,0,0,1-2.7-.788,3.7,3.7,0,0,0,.423.021,3.522,3.522,0,0,0,2.18-.75A1.759,1.759,0,0,1,2.676,8.995a1.893,1.893,0,0,0,.793-.032A1.757,1.757,0,0,1,2.062,7.238V7.216a1.756,1.756,0,0,0,.793.222,1.753,1.753,0,0,1-.782-1.462,1.735,1.735,0,0,1,.238-.887A4.988,4.988,0,0,0,5.933,6.927a1.76,1.76,0,0,1,3-1.6A3.442,3.442,0,0,0,10.045,4.9a1.752,1.752,0,0,1-.771.967,3.5,3.5,0,0,0,1.012-.273A3.7,3.7,0,0,1,9.4,6.5Z" transform="translate(0 -2.25)"/></svg>