<svg xmlns="http://www.w3.org/2000/svg" width="23.186" height="30" viewBox="0 0 23.186 30"><path d="M4.37-26.059c0,5.7,4.36,9.5,10.9,9.5,7.377,0,12.285-4.963,12.285-12.436,0-12.409-10.585-17.564-17.783-17.564-1.426,0-2.372.507-2.372,1.508a1.837,1.837,0,0,0,.466,1.138c1.618,1.933,3.236,4.168,3.277,6.787a4.3,4.3,0,0,1-.027.727,4.142,4.142,0,0,0-3.373-2.468,1.1,1.1,0,0,0-1.111,1.207c0,.343.1,1.193.1,1.782C6.728-33.011,4.37-31.078,4.37-26.059Zm2.276,0c0-4.25,2.345-6.019,2.468-9.954a7.376,7.376,0,0,1,1.522,3.894.4.4,0,0,0,.439.384c1.316,0,2.057-3.3,2.057-5.388a10.794,10.794,0,0,0-2.893-7.267c9.365.754,14.959,7.13,14.959,15.3,0,6.17-3.908,10.27-9.749,10.27C10.156-18.82,6.646-21.713,6.646-26.059Zm8.995,5.649c3.359,0,5-2.468,5-5.265a8.135,8.135,0,0,0-4.7-7.294c-.123-.055-.219.014-.192.151.165,2.372.027,4.264-.686,5.512-.069.123-.178.11-.233-.027a5.206,5.206,0,0,0-1.385-2.1c-.1-.1-.192-.055-.206.082-.219,1.59-1.988,2.482-1.988,4.977C11.253-22,12.994-20.41,15.641-20.41Z" transform="translate(-4.37 46.558)"/></svg>